<svg width="101" height="33" viewBox="0 0 101 33" fill="none" xmlns="http://www.w3.org/2000/svg">
<g id="38" clip-path="url(#clip0_1265_4149)">
<g id="Clip path group">
<mask id="mask0_1265_4149" style="mask-type:luminance" maskUnits="userSpaceOnUse" x="2" y="0" width="25" height="26">
<g id="846ade1c6a">
<path id="Vector" d="M2.11603 0.630859H26.1117V25.1409H2.11603V0.630859Z" fill="white"/>
</g>
</mask>
<g mask="url(#mask0_1265_4149)">
<g id="Group">
<path id="Vector_2" d="M25.9092 11.7954H14.6479V15.128H22.635C22.2393 19.7927 18.342 21.7951 14.6615 21.7951C14.5162 21.7956 14.3709 21.7927 14.2256 21.7862C14.0806 21.7795 13.9355 21.7693 13.791 21.7558C13.6463 21.7421 13.502 21.7247 13.3583 21.7039C13.2146 21.6828 13.0714 21.6584 12.9287 21.6306C12.7863 21.6025 12.6444 21.5711 12.5035 21.536C12.3624 21.5012 12.2223 21.4628 12.0833 21.4207C11.9442 21.3788 11.8062 21.3336 11.6693 21.2848C11.5326 21.2359 11.3969 21.184 11.2628 21.1284C11.1285 21.073 10.9957 21.0143 10.8645 20.9522C10.7332 20.8901 10.6033 20.8249 10.4755 20.7563C10.3474 20.688 10.2211 20.6163 10.0966 20.5417C9.97193 20.4669 9.84955 20.3892 9.72874 20.3084C9.60819 20.2276 9.48972 20.1439 9.37334 20.0572C9.25669 19.9706 9.14265 19.881 9.03043 19.7888C8.91847 19.6965 8.80885 19.6015 8.70158 19.5038C8.59431 19.4061 8.48964 19.3055 8.38731 19.2026C8.28499 19.0998 8.18527 18.9943 8.08841 18.8864C7.99129 18.7786 7.89704 18.6685 7.80539 18.556C7.714 18.4435 7.62521 18.3286 7.53929 18.2117C7.45363 18.0948 7.37057 17.9758 7.29089 17.8547C7.21096 17.7337 7.13389 17.6108 7.06021 17.4861C6.98652 17.3611 6.9157 17.2346 6.84827 17.1062C6.78083 16.9779 6.71652 16.8479 6.65559 16.7165C6.59467 16.5848 6.53686 16.452 6.48245 16.3177C6.42803 16.1831 6.377 16.0475 6.32935 15.9105C6.2817 15.7736 6.23744 15.6357 6.19682 15.4967C6.15594 15.3577 6.11871 15.2176 6.08486 15.0765C6.05101 14.9357 6.02081 14.7939 5.99399 14.6515C5.96743 14.5091 5.944 14.3659 5.92447 14.2225C5.90494 14.0789 5.8888 13.9349 5.8763 13.7905C5.86381 13.6463 5.85495 13.5016 5.84975 13.3568C5.84454 13.2119 5.84298 13.0671 5.8448 12.9222C5.8448 7.87711 9.76103 3.99289 14.6721 3.99289C18.4608 3.99289 20.6932 6.40136 20.6932 6.40136L23.0318 3.98458C23.0318 3.98458 20.0274 0.650391 14.5498 0.650391C7.57444 0.650391 2.17853 6.52166 2.17853 12.8629C2.17853 19.0769 7.25418 25.1365 14.726 25.1365C21.2985 25.1365 26.1097 20.6459 26.1097 14.0058C26.1097 12.6047 25.9055 11.7954 25.9055 11.7954H25.9092Z" fill="#4885ED"/>
</g>
</g>
</g>
<path id="Vector_3" d="M35.1349 9.38066C30.5134 9.38066 27.2017 12.9843 27.2017 17.1852C27.2017 21.4498 30.4129 25.1197 35.1888 25.1197C39.5118 25.1197 43.0528 21.8247 43.0528 17.2767C43.0528 12.0736 38.9332 9.37988 35.1349 9.37988V9.38066ZM35.18 12.4719C37.452 12.4719 39.6052 14.3046 39.6052 17.2569C39.6052 20.1455 37.4608 22.031 35.169 22.031C32.6505 22.031 30.6717 20.0198 30.6717 17.2335C30.6717 14.5065 32.6325 12.4719 35.187 12.4719H35.18Z" fill="#DB3236"/>
<path id="Vector_4" d="M52.3876 9.38066C47.766 9.38066 44.4541 12.9843 44.4541 17.1852C44.4541 21.4498 47.6653 25.1197 52.4415 25.1197C56.7642 25.1197 60.3055 21.8247 60.3055 17.2767C60.3055 12.0736 56.1859 9.37988 52.3876 9.37988V9.38066ZM52.4324 12.4719C54.7046 12.4719 56.8579 14.3046 56.8579 17.2569C56.8579 20.1455 54.7135 22.031 52.4217 22.031C49.9032 22.031 47.9243 20.0198 47.9243 17.2335C47.9243 14.5065 49.8852 12.4719 52.4397 12.4719H52.4324Z" fill="#F4C20D"/>
<g id="Clip path group_2">
<mask id="mask1_1265_4149" style="mask-type:luminance" maskUnits="userSpaceOnUse" x="61" y="9" width="16" height="24">
<g id="c30711c99d">
<path id="Vector_5" d="M61.7058 9.37695H76.9031V32.207H61.7058V9.37695Z" fill="white"/>
</g>
</mask>
<g mask="url(#mask1_1265_4149)">
<g id="Group_2">
<path id="Vector_6" d="M69.3091 9.39062C65.0671 9.39062 61.7339 13.0953 61.7339 17.2541C61.7339 21.9908 65.5988 25.1322 69.2354 25.1322C71.484 25.1322 72.6804 24.2413 73.5529 23.2197V24.7716C73.5529 27.4869 71.8995 29.1133 69.4044 29.1133C66.9939 29.1133 65.785 27.3256 65.3569 26.3118L62.3239 27.5677C63.3997 29.8374 65.5655 32.2028 69.4296 32.2028C73.657 32.2028 76.8609 29.554 76.8609 23.9973V9.86323H73.5654V11.1963C72.5489 10.102 71.1567 9.39062 69.3109 9.39062H69.3091ZM69.615 12.4764C71.6943 12.4764 73.8299 14.2473 73.8299 17.2713C73.8299 20.3454 71.698 22.0391 69.5689 22.0391C67.3079 22.0391 65.2038 20.209 65.2038 17.2999C65.2038 14.2785 67.3896 12.4754 69.615 12.4754V12.4764Z" fill="#4885ED"/>
</g>
</g>
</g>
<path id="Vector_7" d="M91.5907 9.37109C87.5898 9.37109 84.2303 12.5468 84.2303 17.2294C84.2303 22.1867 87.9749 25.1262 91.9659 25.1262C95.3046 25.1262 97.3626 23.3052 98.5767 21.6725L95.8488 19.8624C95.1408 20.9567 93.9572 22.0287 91.9828 22.0287C89.7647 22.0287 88.7448 20.8177 88.1124 19.6426L98.6928 15.2647L98.1531 13.982C97.1314 11.4701 94.7469 9.37109 91.5915 9.37109H91.5907ZM91.7284 12.3979C93.1701 12.3979 94.2071 13.162 94.648 14.0789L87.5818 17.0239C87.2761 14.7435 89.4437 12.3979 91.7193 12.3979H91.7284Z" fill="#DB3236"/>
<path id="Vector_8" d="M79.1776 24.6602H82.6532V1.46484H79.1776V24.6602Z" fill="#3CBA54"/>
</g>
<defs>
<clipPath id="clip0_1265_4149">
<rect width="100" height="32" fill="white" transform="translate(0.450012 0.375)"/>
</clipPath>
</defs>
</svg>
