<svg width="24" height="24" viewBox="0 0 24 24" fill="none" xmlns="http://www.w3.org/2000/svg">
<g id="Feather Icons/fi:users">
<path id="Vector" d="M23.0002 21.0006V19.0003C22.9995 18.114 22.7045 17.2529 22.1615 16.5524C21.6184 15.8518 20.8581 15.3515 19.9998 15.1299" stroke="#454B4F" stroke-width="1.66678" stroke-linecap="round" stroke-linejoin="round"/>
<path id="Vector_2" d="M17 21V19C17 17.9391 16.5786 16.9217 15.8284 16.1716C15.0783 15.4214 14.0609 15 13 15H5C3.93913 15 2.92172 15.4214 2.17157 16.1716C1.42143 16.9217 1 17.9391 1 19V21" stroke="#454B4F" stroke-width="1.66678" stroke-linecap="round" stroke-linejoin="round"/>
<path id="Vector_3" d="M16 3.12988C16.8605 3.35021 17.6232 3.85067 18.1679 4.55236C18.7126 5.25405 19.0082 6.11706 19.0082 7.00533C19.0082 7.8936 18.7126 8.75661 18.1679 9.4583C17.6232 10.16 16.8605 10.6605 16 10.8808" stroke="#454B4F" stroke-width="1.66678" stroke-linecap="round" stroke-linejoin="round"/>
<path id="Vector_4" d="M8.99851 11.0009C11.2079 11.0009 12.999 9.20986 12.999 7.00046C12.999 4.79107 11.2079 3 8.99851 3C6.78912 3 4.99805 4.79107 4.99805 7.00046C4.99805 9.20986 6.78912 11.0009 8.99851 11.0009Z" stroke="#454B4F" stroke-width="1.66678" stroke-linecap="round" stroke-linejoin="round"/>
</g>
</svg>
