<svg width="106" height="42" viewBox="0 0 106 42" fill="none" xmlns="http://www.w3.org/2000/svg">
<g id="Group 6">
<path id="Vector" d="M79.1412 13.031L82.9137 13.063C83.2287 13.063 83.3387 13.223 83.2437 13.543C83.1687 13.815 83.0287 14.047 82.8237 14.239C82.4133 14.6198 81.9042 14.862 81.3612 14.935C79.3862 15.207 78.1787 16.4417 77.7387 18.639C77.1087 21.7644 76.5812 24.799 76.1562 27.743C74.9787 35.895 71.6487 41.567 63.0087 41.927C62.9562 41.9298 62.9037 41.9203 62.855 41.8991C62.8062 41.8779 62.7625 41.8456 62.7267 41.8044C62.691 41.7632 62.6641 41.7142 62.648 41.6607C62.632 41.6073 62.6271 41.5507 62.6337 41.495C62.7087 40.8017 63.0737 40.3484 63.7287 40.135C65.6487 39.519 67.0962 39.175 67.9212 36.927C68.7812 34.591 69.4162 32.0177 69.8262 29.207C70.9562 21.5057 72.1112 14.967 73.2912 9.59104C74.8062 2.67904 79.8687 0.583044 85.8612 0.00704348C86.3662 -0.0409565 86.4712 0.156377 86.1762 0.599043L85.8087 1.14304C85.6685 1.35069 85.49 1.52634 85.2839 1.65962C85.0778 1.7929 84.8482 1.88112 84.6087 1.91904C79.5462 2.67104 79.3512 8.17504 78.6912 12.455C78.6312 12.8337 78.7812 13.0257 79.1412 13.031Z" fill="#8E8E8E"/>
<path id="Vector_2" d="M26.6488 23.9588C25.4788 23.8361 25.0488 24.3775 25.3588 25.5828L25.4863 26.0948C25.6399 26.6961 25.9622 27.2329 26.4099 27.6333C26.8576 28.0336 27.4094 28.2784 27.9913 28.3348C31.4413 28.6655 34.5238 28.5508 37.2388 27.9908C37.5338 27.9268 37.6288 28.0441 37.5238 28.3428C37.3488 28.8228 37.0738 29.2361 36.6988 29.5828C36.2946 29.9571 35.7848 30.1841 35.2438 30.2308C31.9088 30.5028 27.9938 30.5695 23.4988 30.4308C18.7438 30.2788 18.4438 25.9268 19.2463 22.0468C20.0263 18.2308 21.1438 15.2308 24.9613 13.9428C29.4238 12.4308 34.4863 11.7588 38.7763 13.5588C40.8763 14.4388 41.6588 16.1321 41.1238 18.6388C40.5988 21.0975 39.0613 22.6441 36.5113 23.2788C33.2613 24.0841 29.9738 24.3108 26.6488 23.9588ZM32.6638 21.2868C35.8288 20.4548 36.9688 14.8228 33.0238 14.5348C28.7988 14.2201 26.3738 16.5161 25.7488 21.4228C25.7138 21.7055 25.8288 21.8548 26.0938 21.8708C28.3738 22.0255 30.5638 21.8308 32.6638 21.2868Z" fill="#8E8E8E"/>
<path id="Vector_3" d="M90.4209 23.9589C89.1959 23.8362 88.8009 24.4069 89.2359 25.6709C89.2509 25.7135 89.3159 25.9029 89.4309 26.2389C89.8609 27.4869 90.6984 28.1749 91.9434 28.3029C95.3134 28.6442 98.3484 28.5455 101.048 28.0069C101.493 27.9215 101.603 28.0869 101.378 28.5029C101.168 28.8922 100.906 29.2389 100.591 29.5429C100.154 29.9724 99.5928 30.2293 99.0009 30.2709C95.7059 30.4789 91.9734 30.5455 87.8034 30.4709C81.0234 30.3349 82.4934 22.6629 84.1884 18.3669C85.6209 14.7509 88.8234 13.6309 92.2659 12.9829C96.1359 12.2549 106.651 11.5989 105.061 18.5589C104.481 21.1135 102.896 22.7002 100.306 23.3189C97.1259 24.0762 93.8309 24.2895 90.4209 23.9589ZM89.5134 21.3269C89.4484 21.6202 89.5559 21.7802 89.8359 21.8069C92.7909 22.1189 98.8134 22.2229 99.3309 18.0389C99.6209 15.6655 98.6184 14.4815 96.3234 14.4869C91.8009 14.5029 90.4434 17.3509 89.5134 21.3269Z" fill="#8E8E8E"/>
<path id="Vector_4" d="M8.93372 19.3107C8.48872 22.9001 7.93872 26.3721 7.28372 29.7267C7.20872 30.1107 6.98622 30.3027 6.61622 30.3027L1.29122 30.2787C0.896224 30.2734 0.728724 30.0627 0.788724 29.6467C1.40872 25.3267 2.10372 21.3001 2.87372 17.5667C3.50372 14.4867 6.39872 13.6707 8.94122 13.2387C13.0362 12.5454 16.9287 12.5614 20.6187 13.2867C21.1237 13.3827 21.2262 13.6521 20.9262 14.0947L20.6487 14.5027C20.5187 14.6937 20.349 14.8491 20.1534 14.9561C19.9579 15.0632 19.7421 15.1189 19.5237 15.1187C15.9537 15.1427 9.61622 13.7907 8.93372 19.3107Z" fill="#8E8E8E"/>
<path id="Vector_5" d="M51.9463 15.7751L49.6138 29.6871C49.5438 30.0818 49.3213 30.2818 48.9463 30.2871L44.0488 30.2951C43.9712 30.2952 43.8946 30.2771 43.8242 30.2423C43.7539 30.2074 43.6916 30.1566 43.6416 30.0933C43.5915 30.0301 43.5551 29.956 43.5348 29.8761C43.5144 29.7963 43.5107 29.7127 43.5238 29.6311L46.1338 13.4311C46.1533 13.3082 46.2129 13.1966 46.3021 13.1161C46.3913 13.0355 46.5044 12.9913 46.6213 12.9911C51.0463 13.0018 55.4213 12.9965 59.7463 12.9751C63.2038 12.9671 67.2538 14.1351 66.4213 18.9031C65.7963 22.4658 65.1638 26.1165 64.5238 29.8551C64.4638 30.2071 64.2663 30.3831 63.9313 30.3831L58.8388 30.4071C58.4688 30.4071 58.3163 30.2125 58.3813 29.8231C58.9113 26.5965 59.4888 23.1885 60.1138 19.5991C61.0738 14.0471 55.5088 15.0551 52.5763 15.1911C52.2213 15.2071 52.0113 15.4018 51.9463 15.7751Z" fill="#8E8E8E"/>
</g>
</svg>
