<svg width="105" height="42" viewBox="0 0 105 42" fill="none" xmlns="http://www.w3.org/2000/svg">
<g id="Group 7">
<path id="Vector" d="M78.3639 13.031L82.1364 13.063C82.4514 13.063 82.5614 13.223 82.4664 13.543C82.3914 13.815 82.2514 14.047 82.0464 14.239C81.6359 14.6198 81.1269 14.862 80.5839 14.935C78.6089 15.207 77.4014 16.4417 76.9614 18.639C76.3314 21.7644 75.8039 24.799 75.3789 27.743C74.2014 35.895 70.8714 41.567 62.2314 41.927C62.1788 41.9298 62.1263 41.9203 62.0776 41.8991C62.0289 41.8779 61.9851 41.8456 61.9494 41.8044C61.9136 41.7632 61.8868 41.7142 61.8707 41.6607C61.8546 41.6073 61.8498 41.5507 61.8564 41.495C61.9314 40.8017 62.2964 40.3484 62.9514 40.135C64.8714 39.519 66.3189 39.175 67.1439 36.927C68.0039 34.591 68.6389 32.0177 69.0489 29.207C70.1789 21.5057 71.3339 14.967 72.5139 9.59104C74.0289 2.67904 79.0914 0.583044 85.0839 0.00704348C85.5889 -0.0409565 85.6939 0.156377 85.3989 0.599043L85.0314 1.14304C84.8911 1.35069 84.7127 1.52634 84.5066 1.65962C84.3004 1.7929 84.0709 1.88112 83.8314 1.91904C78.7689 2.67104 78.5739 8.17504 77.9139 12.455C77.8539 12.8337 78.0039 13.0257 78.3639 13.031Z" fill="#7F025C"/>
<path id="Vector_2" d="M25.8709 23.9588C24.7009 23.8361 24.2709 24.3775 24.5809 25.5828L24.7084 26.0948C24.862 26.6961 25.1843 27.2329 25.6321 27.6333C26.0798 28.0336 26.6316 28.2784 27.2134 28.3348C30.6634 28.6655 33.7459 28.5508 36.4609 27.9908C36.7559 27.9268 36.8509 28.0441 36.7459 28.3428C36.5709 28.8228 36.2959 29.2361 35.9209 29.5828C35.5168 29.9571 35.007 30.1841 34.4659 30.2308C31.1309 30.5028 27.2159 30.5695 22.7209 30.4308C17.9659 30.2788 17.6659 25.9268 18.4684 22.0468C19.2484 18.2308 20.3659 15.2308 24.1834 13.9428C28.6459 12.4308 33.7084 11.7588 37.9984 13.5588C40.0984 14.4388 40.8809 16.1321 40.3459 18.6388C39.8209 21.0975 38.2834 22.6441 35.7334 23.2788C32.4834 24.0841 29.1959 24.3108 25.8709 23.9588ZM31.8859 21.2868C35.0509 20.4548 36.1909 14.8228 32.2459 14.5348C28.0209 14.2201 25.5959 16.5161 24.9709 21.4228C24.9359 21.7055 25.0509 21.8548 25.3159 21.8708C27.5959 22.0255 29.7859 21.8308 31.8859 21.2868Z" fill="#7F025C"/>
<path id="Vector_3" d="M89.6445 23.9589C88.4195 23.8362 88.0245 24.4069 88.4595 25.6709C88.4745 25.7135 88.5395 25.9029 88.6545 26.2389C89.0845 27.4869 89.922 28.1749 91.167 28.3029C94.537 28.6442 97.572 28.5455 100.272 28.0069C100.717 27.9215 100.827 28.0869 100.602 28.5029C100.392 28.8922 100.13 29.2389 99.8145 29.5429C99.3775 29.9724 98.8164 30.2293 98.2245 30.2709C94.9295 30.4789 91.197 30.5455 87.027 30.4709C80.247 30.3349 81.717 22.6629 83.412 18.3669C84.8445 14.7509 88.047 13.6309 91.4895 12.9829C95.3595 12.2549 105.875 11.5989 104.285 18.5589C103.705 21.1135 102.12 22.7002 99.5295 23.3189C96.3495 24.0762 93.0545 24.2895 89.6445 23.9589ZM88.737 21.3269C88.672 21.6202 88.7795 21.7802 89.0595 21.8069C92.0145 22.1189 98.037 22.2229 98.5545 18.0389C98.8445 15.6655 97.842 14.4815 95.547 14.4869C91.0245 14.5029 89.667 17.3509 88.737 21.3269Z" fill="#7F025C"/>
<path id="Vector_4" d="M8.15687 19.3107C7.71187 22.9001 7.16187 26.3721 6.50687 29.7267C6.43187 30.1107 6.20937 30.3027 5.83937 30.3027L0.514368 30.2787C0.119368 30.2734 -0.0481319 30.0627 0.0118681 29.6467C0.631868 25.3267 1.32687 21.3001 2.09687 17.5667C2.72687 14.4867 5.62187 13.6707 8.16437 13.2387C12.2594 12.5454 16.1519 12.5614 19.8419 13.2867C20.3469 13.3827 20.4494 13.6521 20.1494 14.0947L19.8719 14.5027C19.7419 14.6937 19.5721 14.8491 19.3766 14.9561C19.181 15.0632 18.9652 15.1189 18.7469 15.1187C15.1769 15.1427 8.83937 13.7907 8.15687 19.3107Z" fill="#7F025C"/>
<path id="Vector_5" d="M51.1684 15.7751L48.8359 29.6871C48.7659 30.0818 48.5434 30.2818 48.1684 30.2871L43.2709 30.2951C43.1934 30.2952 43.1168 30.2771 43.0464 30.2423C42.9761 30.2074 42.9137 30.1566 42.8637 30.0933C42.8137 30.0301 42.7773 29.956 42.7569 29.8761C42.7366 29.7963 42.7328 29.7127 42.7459 29.6311L45.3559 13.4311C45.3754 13.3082 45.4351 13.1966 45.5243 13.1161C45.6135 13.0355 45.7266 12.9913 45.8434 12.9911C50.2684 13.0018 54.6434 12.9965 58.9684 12.9751C62.4259 12.9671 66.4759 14.1351 65.6434 18.9031C65.0184 22.4658 64.3859 26.1165 63.7459 29.8551C63.6859 30.2071 63.4884 30.3831 63.1534 30.3831L58.0609 30.4071C57.6909 30.4071 57.5384 30.2125 57.6034 29.8231C58.1334 26.5965 58.7109 23.1885 59.3359 19.5991C60.2959 14.0471 54.7309 15.0551 51.7984 15.1911C51.4434 15.2071 51.2334 15.4018 51.1684 15.7751Z" fill="#7F025C"/>
</g>
</svg>
